<?xml version="1.0" encoding="utf-8"?>
<!-- Generator: Adobe Illustrator 24.1.2, SVG Export Plug-In . SVG Version: 6.00 Build 0)  -->
<svg version="1.1" id="Layer_1" xmlns="http://www.w3.org/2000/svg" xmlns:xlink="http://www.w3.org/1999/xlink" x="0px" y="0px" width="47.57px" height="55px"
	 viewBox="0 0 47.57 55" style="enable-background:new 0 0 96 96;" xml:space="preserve">
<style type="text/css">
	.st0{fill:#858C91;}
</style>
<path class="st0" d="M24,58c0,2.2-1.8,4-4,4s-4-1.8-4-4V40c0-2.2,1.8-4,4-4s4,1.8,4,4V58z M80,58c0,2.2-1.8,4-4,4s-4-1.8-4-4V40
	c0-2.2,1.8-4,4-4s4,1.8,4,4V58z M44,80c0,2.2-1.8,4-4,4s-4-1.8-4-4V62c0-2.2,1.8-4,4-4s4,1.8,4,4V80z M60,80c0,2.2-1.8,4-4,4
	s-4-1.8-4-4V62c0-2.2,1.8-4,4-4s4,1.8,4,4V80z"/>
<path class="st0" d="M28,36v30c0,2.2,1.8,4,4,4h32c2.2,0,4-1.8,4-4V36H28z M48,16c-12,0-19.4,7.2-20,16h40C67.4,23.2,60,16,48,16z
	 M40,27.2c-1.2,0-2-0.8-2-2s0.8-2,2-2s2,0.8,2,2C42,26.2,41.2,27.2,40,27.2z M56,27.2c-1.2,0-2-0.8-2-2s0.8-2,2-2s2,0.8,2,2
	C58,26.2,57.2,27.2,56,27.2z"/>
<path class="st0" d="M56.6,21c-0.4,0-0.8-0.2-1.2-0.4c-1-0.6-1.2-1.8-0.6-2.8l3.4-5c0.6-1,1.8-1.2,2.8-0.6c1,0.6,1.2,1.8,0.6,2.8
	l-3.4,5C58,20.6,57.4,21,56.6,21z M38.6,20.2c-0.6,0-1.4-0.4-1.6-1L34.4,15c-0.6-1-0.4-2.2,0.6-2.8s2.2-0.4,2.8,0.6l2.6,4.2
	c0.6,1,0.4,2.2-0.6,2.8C39.4,20,39,20.2,38.6,20.2z"/>
</svg>
