<?xml version="1.0" encoding="utf-8"?>
<!-- Generator: Adobe Illustrator 24.1.2, SVG Export Plug-In . SVG Version: 6.00 Build 0)  -->
<svg version="1.1" id="Layer_1" xmlns="http://www.w3.org/2000/svg" xmlns:xlink="http://www.w3.org/1999/xlink" x="0px" y="0px"
	 viewBox="0 0 72 72" style="enable-background:new 0 0 72 72;" xml:space="preserve">
<style type="text/css">
	.st0{fill-rule:evenodd;clip-rule:evenodd;fill:#5C068C;}
	.st1{fill-rule:evenodd;clip-rule:evenodd;fill:#FFFFFF;}
	.st2{filter:url(#Adobe_OpacityMaskFilter);}
	.st3{mask:url(#b_1_);fill-rule:evenodd;clip-rule:evenodd;fill:#FFFFFF;}
</style>
<g>
	<circle class="st0" cx="36" cy="36" r="36"/>
	<path class="st1" d="M36.7,46H35V32.1c0-2.3,2.6-4.1,6-4.1h6v15.5h-6C38.7,43.5,36.7,44.7,36.7,46z M41,29.6
		c-2.3,0-4.3,1.1-4.3,2.5v11c1.1-0.7,2.6-1.2,4.3-1.2h4.3V29.6H41z"/>
	<path class="st1" d="M35,46c0-1.3-2-2.5-4.3-2.5h-6V28h6c3.4,0,6,1.8,6,4.1H35c0-1.3-2-2.5-4.3-2.5h-4.3v12.3h4.3
		c3.4,0,6,1.8,6,4.1L35,46L35,46z"/>
	<g transform="translate(17 20)">
		<defs>
			<filter id="Adobe_OpacityMaskFilter" filterUnits="userSpaceOnUse" x="0" y="0.5" width="38" height="35.5">
				<feColorMatrix  type="matrix" values="1 0 0 0 0  0 1 0 0 0  0 0 1 0 0  0 0 0 1 0"/>
			</filter>
		</defs>
		<mask maskUnits="userSpaceOnUse" x="0" y="0.5" width="38" height="35.5" id="b_1_">
			<g class="st2">
				<path id="a_1_" class="st1" d="M0,0.5h38V36H0V0.5z"/>
			</g>
		</mask>
		<path class="st3" d="M6.9,36v-5.5H3.5C1.5,30.5,0,29,0,27.1V3.9c0-1.9,1.5-3.4,3.5-3.4h31.1c1.9,0,3.5,1.5,3.5,3.4v23.1
			c0,1.9-1.5,3.4-3.5,3.4H16.7L6.9,36z M3.5,2.2c-1,0-1.7,0.8-1.7,1.7v23.1c0,0.9,0.8,1.7,1.7,1.7h5.2v4.3l7.7-4.3h18.3
			c1,0,1.7-0.8,1.7-1.7V3.9c0-0.9-0.8-1.7-1.7-1.7H3.5L3.5,2.2z"/>
	</g>
</g>
</svg>
