<?xml version="1.0" encoding="utf-8"?>
<!-- Generator: Adobe Illustrator 24.1.2, SVG Export Plug-In . SVG Version: 6.00 Build 0)  -->
<svg version="1.1" id="Layer_1" xmlns="http://www.w3.org/2000/svg" xmlns:xlink="http://www.w3.org/1999/xlink" x="0px" y="0px" width="60px" height="60px"
	 viewBox="0 0 100 100" style="enable-background:new 0 0 100 100;" xml:space="preserve">
<style type="text/css">
	.st0{fill:#858C90;}
</style>
<path class="st0" d="M50,4c-1.4,0-2.9,0.4-4.1,1.1L12.2,24C9.6,25.5,8,28.2,8,31.1v37.9c0,2.9,1.6,5.6,4.2,7.1l33.7,18.9
	c1.3,0.7,2.7,1.1,4.1,1.1s2.9-0.4,4.1-1.1L87.8,76c2.6-1.5,4.2-4.2,4.2-7.1V31.1c0-2.9-1.6-5.6-4.2-7.1L54.1,5.1
	C52.9,4.4,51.4,4,50,4z M50,26c7.6,0,14.6,3.5,19.1,9.5l-8.8,5.1C57.7,37.7,53.9,36,50,36c-7.7,0-14,6.3-14,14s6.3,14,14,14
	c3.9,0,7.7-1.7,10.3-4.6l8.8,5.1C64.6,70.5,57.6,74,50,74c-13.2,0-24-10.8-24-24S36.8,26,50,26z M70,40h4v4h4v-4h4v4h4v4h-4v4h4v4
	h-4v4h-4v-4h-4v4h-4v-4h-4v-4h4v-4h-4v-4h4V40z M74,48v4h4v-4H74z"/>
</svg>
