<?xml version="1.0" encoding="utf-8"?>
<!-- Generator: Adobe Illustrator 24.1.2, SVG Export Plug-In . SVG Version: 6.00 Build 0)  -->
<svg version="1.1" id="Layer_1" xmlns="http://www.w3.org/2000/svg" xmlns:xlink="http://www.w3.org/1999/xlink" x="0px" y="0px" width="55px" height="55px"
	 viewBox="0 0 100 100"  style="enable-background:new 0 0 100 100;" xml:space="preserve">
<style type="text/css">
	.st0{fill:#858C91;}
</style>
<path class="st0" d="M32,6C18.8,6,8,16.8,8,30v40c0,13.2,10.8,24,24,24h40c13.2,0,24-10.8,24-24V30C96,16.8,85.2,6,72,6H32z
	 M25.2,36.1c1.4,0,2.4,1,2.4,2.3c0,1.3-1,2.3-2.4,2.3c-1.4,0-2.5-1-2.5-2.3C22.8,37.1,23.8,36.1,25.2,36.1z M46.1,37.3
	c7.3,0,11.8,5.1,11.8,13.3c0,8.2-4.5,13.3-11.8,13.3c-7.4,0-11.9-5.1-11.9-13.3C34.2,42.4,38.8,37.3,46.1,37.3z M71.9,37.3
	c5.1,0,8.9,3,9.1,7.3h-3.8c-0.4-2.3-2.4-3.8-5.4-3.8c-3.1,0-5.2,1.5-5.2,3.8c0,1.8,1.3,2.8,4.6,3.6l2.8,0.7c5.2,1.2,7.4,3.3,7.4,7.1
	c0,4.9-3.8,7.9-9.8,7.9c-5.6,0-9.4-2.9-9.7-7.4h3.9c0.3,2.4,2.7,3.9,6.1,3.9c3.2,0,5.5-1.6,5.5-3.9c0-1.9-1.5-3.1-4.8-3.9l-3.3-0.8
	c-4.6-1.1-6.7-3.3-6.7-7C62.7,40.3,66.4,37.3,71.9,37.3z M46.1,40.9c-4.8,0-7.8,3.7-7.8,9.6c0,5.9,2.9,9.6,7.8,9.6
	c4.8,0,7.8-3.8,7.8-9.6C53.9,44.7,50.9,40.9,46.1,40.9z M23.4,44.1h3.8v19.1h-3.8V44.1z"/>
</svg>
