<?xml version="1.0" encoding="utf-8"?>
<!-- Generator: Adobe Illustrator 24.1.2, SVG Export Plug-In . SVG Version: 6.00 Build 0)  -->
<svg version="1.1" id="Layer_1" xmlns="http://www.w3.org/2000/svg" xmlns:xlink="http://www.w3.org/1999/xlink" x="0px" y="0px" width="49.11px" height="55px"
	 viewBox="0 0 49.11 55"  style="enable-background:new 0 0 100 100;" xml:space="preserve">
<style type="text/css">
	.st0{fill:#858C91;}
</style>
<path class="st0" d="M90.5,4.7C90.2,4.2,89.6,4,89.1,4H10.9c-0.6,0-1.1,0.2-1.5,0.7c-0.4,0.4-0.6,1-0.5,1.5L16,85
	c0.1,0.8,0.6,1.5,1.4,1.7l32,9.1c0.2,0,0.4,0.1,0.5,0.1c0.2,0,0.4,0,0.5-0.1l32-9.1c0.8-0.2,1.4-0.9,1.4-1.7l7-78.9
	C91.1,5.6,90.9,5.1,90.5,4.7z M46,74l-22-6.1V58l14,3.9V22h8V74z M77.3,30H62v16l14.1-2L74,68.5L54,74v-9.2l13.5-3.7l0.5-7.5L54,56
	V22h24L77.3,30z"/>
</svg>
