<?xml version="1.0" encoding="utf-8"?>
<!-- Generator: Adobe Illustrator 24.1.2, SVG Export Plug-In . SVG Version: 6.00 Build 0)  -->
<svg version="1.1" id="Layer_1" xmlns="http://www.w3.org/2000/svg" xmlns:xlink="http://www.w3.org/1999/xlink" x="0px" y="0px"
	 viewBox="0 0 96 96" style="enable-background:new 0 0 96 96;" xml:space="preserve">
<style type="text/css">
	.st0{fill:#858C91;}
</style>
<path class="st0" d="M34.4,38.2l-9.8,5.4c-0.4,0.2-0.6,0.6-0.6,1v10.9c0,0.4,0.2,0.8,0.6,1l9.8,5.4c0.4,0.2,0.8,0.2,1.2,0l9.8-5.4
	c0.4-0.2,0.6-0.6,0.6-1V44.7c0-0.4-0.2-0.8-0.6-1l-9.8-5.4c-0.2-0.1-0.4-0.2-0.6-0.2C34.8,38.1,34.6,38.1,34.4,38.2 M84.9,48
	l-1.6,0.9c-0.1,0-0.1,0.1-0.1,0.2v1.8c0,0.1,0,0.1,0.1,0.2l1.6,0.9c0.1,0,0.1,0,0.2,0l1.6-0.9c0.1,0,0.1-0.1,0.1-0.2v-1.8
	c0-0.1,0-0.1-0.1-0.2L85.1,48C85.1,48,85,48,84.9,48C85,48,84.9,48,84.9,48"/>
<path class="st0" d="M71.5,26.7l-4.8-2.7c-0.2-0.1-0.3-0.1-0.5,0c-0.1,0.1-0.2,0.2-0.2,0.4l0,16.1l-4.4-2.4C61.4,38,61.2,38,61,38
	s-0.4,0-0.6,0.2h0l-9.8,5.4c-0.4,0.2-0.6,0.6-0.6,1v10.9c0,0.4,0.2,0.8,0.6,1l9.8,5.4c0.4,0.2,0.8,0.2,1.2,0l9.8-5.4
	c0.4-0.2,0.6-0.6,0.6-1V27.6C72,27.2,71.8,26.9,71.5,26.7z M65.7,52.9l-4.5,2.5c-0.2,0.1-0.4,0.1-0.5,0l-4.5-2.5
	c-0.2-0.1-0.3-0.3-0.3-0.4v-4.9c0-0.2,0.1-0.4,0.3-0.4l4.5-2.5h0c0.1,0,0.2-0.1,0.3-0.1s0.2,0,0.3,0.1l4.5,2.5
	c0.2,0.1,0.3,0.3,0.3,0.5v4.9C66,52.7,65.9,52.8,65.7,52.9z"/>
<path class="st0" d="M34.4,38.2L24,55.5c0,0.4,0.2,0.8,0.6,1l9.8,5.4c0.4,0.2,0.8,0.2,1.2,0L46,44.7c0-0.4-0.2-0.8-0.6-1l-9.8-5.4
	c-0.2-0.1-0.4-0.2-0.6-0.2C34.8,38.1,34.6,38.1,34.4,38.2"/>
<path class="st0" d="M34.4,38.2l-9.8,5.4c-0.4,0.2-0.6,0.6-0.6,1l10.4,17.3c0.4,0.2,0.8,0.2,1.2,0l9.8-5.4c0.4-0.2,0.6-0.6,0.6-1
	L35.6,38.2c-0.2-0.1-0.4-0.2-0.6-0.2C34.8,38.1,34.6,38.1,34.4,38.2"/>
<path class="st0" d="M95.4,43.6l-9.8-5.4C85.4,38,85.2,38,85,38s-0.4,0-0.6,0.2h0l-9.8,5.4c-0.4,0.2-0.6,0.6-0.6,1v10.8
	c0,0.4,0.2,0.8,0.6,1l9.8,5.4c0.4,0.2,0.8,0.2,1.2,0l4.5-2.5c0.4-0.2,0.4-0.8,0-1.1l-9.8-5.4c-0.2-0.1-0.3-0.3-0.3-0.5v-4.9
	c0-0.2,0.1-0.4,0.3-0.4l4.5-2.5h0c0.1,0,0.2-0.1,0.3-0.1c0.1,0,0.2,0,0.3,0.1l4.5,2.5c0.2,0.1,0.3,0.3,0.3,0.4v4
	c0,0.2,0.1,0.3,0.2,0.4c0.2,0.1,0.3,0.1,0.5,0l4.8-2.8c0.3-0.2,0.5-0.5,0.5-0.8v-3.8C96,44.2,95.8,43.8,95.4,43.6z M21.4,43.6
	l-9.8-5.4C11.4,38,11.2,38,11,38s-0.4,0-0.6,0.2h0l-9.8,5.4c-0.4,0.2-0.6,0.6-0.6,1v14.9c0,0.2,0.1,0.3,0.2,0.4
	c0.2,0.1,0.3,0.1,0.5,0l4.8-2.8C5.8,57,6,56.7,6,56.3v-8.8c0-0.2,0.1-0.4,0.3-0.4l4.5-2.5l0,0c0.1,0,0.2-0.1,0.3-0.1
	c0.1,0,0.2,0,0.3,0.1l4.5,2.5c0.2,0.1,0.3,0.3,0.3,0.4v8.8c0,0.3,0.2,0.7,0.5,0.8l4.8,2.8c0.1,0.1,0.3,0.1,0.5,0
	c0.1-0.1,0.2-0.2,0.2-0.4V44.6C22,44.2,21.8,43.8,21.4,43.6z"/>
</svg>
