<?xml version="1.0" encoding="utf-8"?>
<!-- Generator: Adobe Illustrator 24.1.2, SVG Export Plug-In . SVG Version: 6.00 Build 0)  -->
<svg version="1.1" id="Layer_1" xmlns="http://www.w3.org/2000/svg" xmlns:xlink="http://www.w3.org/1999/xlink" x="0px" y="0px" width="72px" height="72px"
	 viewBox="0 0 72 72" style="enable-background:new 0 0 63.2 63.2;" xml:space="preserve">
<style type="text/css">
	.st0{fill:#5C068C;}
	.st1{fill:#FFFFFF;}
</style>
<g>
	<circle class="st0" cx="31.6" cy="31.6" r="31.6"/>
	<g>
		<g>
			<g>
				<rect x="19.8" y="25.3" class="st1" width="23.6" height="1.8"/>
			</g>
			<g>
				<rect x="19.8" y="30.7" class="st1" width="23.6" height="1.8"/>
			</g>
			<g>
				<rect x="19.8" y="36.2" class="st1" width="20" height="1.8"/>
			</g>
		</g>
		<path class="st1" d="M15.2,17.6c-1,0-1.8,0.8-1.8,1.8v24.5c0,1,0.8,1.8,1.8,1.8h5.5v4.5l8.1-4.5h19.2c1,0,1.8-0.8,1.8-1.8V19.4
			c0-1-0.8-1.8-1.8-1.8H15.2L15.2,17.6z M18.9,53.4v-5.8h-3.6c-2,0-3.6-1.6-3.6-3.6V19.4c0-2,1.6-3.6,3.6-3.6h32.7
			c2,0,3.6,1.6,3.6,3.6v24.5c0,2-1.6,3.6-3.6,3.6H29.2L18.9,53.4L18.9,53.4z"/>
	</g>
</g>
</svg>
