<?xml version="1.0" encoding="utf-8"?>
<!-- Generator: Adobe Illustrator 24.1.2, SVG Export Plug-In . SVG Version: 6.00 Build 0)  -->
<svg version="1.1" id="Layer_1" xmlns="http://www.w3.org/2000/svg" xmlns:xlink="http://www.w3.org/1999/xlink" x="0px" y="0px"
	 viewBox="0 0 63.2 63.2" style="enable-background:new 0 0 63.2 63.2;" xml:space="preserve">
<style type="text/css">
	.st0{fill:#5C068C;}
	.st1{fill:#FFFFFF;}
</style>
<g>
	<circle class="st0" cx="31.6" cy="31.6" r="31.6"/>
	<g>
		<polygon class="st1" points="29.9,33 22.6,25.7 24,24.3 29.9,30.2 39.8,20.3 41.2,21.7 		"/>
		<path class="st1" d="M46.9,50.6h-30c-1.7,0-3-1.3-3-3v-32c0-1.7,1.3-3,3-3h30c1.7,0,3,1.3,3,3v32C49.9,49.2,48.6,50.6,46.9,50.6z
			 M16.9,14.6c-0.6,0-1,0.4-1,1v32c0,0.6,0.4,1,1,1h30c0.6,0,1-0.4,1-1v-32c0-0.6-0.4-1-1-1H16.9z"/>
		<rect x="29.9" y="44.6" class="st1" width="4" height="2"/>
		<rect x="14.9" y="40.6" class="st1" width="34" height="2"/>
	</g>
</g>
</svg>
