<?xml version="1.0" encoding="utf-8"?>
<!-- Generator: Adobe Illustrator 24.1.2, SVG Export Plug-In . SVG Version: 6.00 Build 0)  -->
<svg version="1.1" id="Layer_1" xmlns="http://www.w3.org/2000/svg" xmlns:xlink="http://www.w3.org/1999/xlink" x="0px" y="0px" width="72px" height="72px"
	 viewBox="0 0 72 72"  style="enable-background:new 0 0 63.2 63.2;" xml:space="preserve">
<style type="text/css">
	.st0{fill:#5C068C;}
	.st1{fill:#FFFFFF;}
</style>
<g>
	<g>
		<circle class="st0" cx="31.6" cy="31.6" r="31.6"/>
	</g>
	<g>
		<g>
			<path class="st1" d="M46.6,53h-30c-1.7,0-3-1.3-3-3V16c0-1.7,1.3-3,3-3h30c1.7,0,3,1.3,3,3v34C49.6,51.6,48.2,53,46.6,53z
				 M16.6,15c-0.6,0-1,0.4-1,1v34c0,0.6,0.4,1,1,1h30c0.6,0,1-0.4,1-1V16c0-0.6-0.4-1-1-1H16.6z"/>
		</g>
		<g>
			<rect x="29.6" y="47" class="st1" width="4" height="2"/>
		</g>
		<g>
			<rect x="14.6" y="43" class="st1" width="34" height="2"/>
		</g>
	</g>
	<path class="st1" d="M31.6,22.9c-1.4,0-2.6,1.2-2.6,2.6s1.2,2.6,2.6,2.6c1.4,0,2.6-1.2,2.6-2.6S33,22.9,31.6,22.9L31.6,22.9z
		 M31.6,29.8c-2.4,0-4.3-1.9-4.3-4.3c0-2.4,1.9-4.3,4.3-4.3c2.4,0,4.3,1.9,4.3,4.3C35.9,27.8,34,29.8,31.6,29.8L31.6,29.8z"/>
	<path class="st1" d="M38.5,38.4h-1.7v-3c0-1.2-1-2.2-2.2-2.2h-6c-1.2,0-2.2,1-2.2,2.2v3h-1.7v-3c0-2.1,1.7-3.9,3.9-3.9h6
		c2.1,0,3.9,1.7,3.9,3.9V38.4L38.5,38.4z"/>
</g>
</svg>
